<svg xmlns="http://www.w3.org/2000/svg"  viewBox="0 0 48 48" width="96px" height="96px" baseProfile="basic"><path fill="#33c481" d="M32.13,22.874l-2.661-0.591l2.07,2.955v9.162l7.096-5.911V18.441l-3.252,1.182L32.13,22.874z"/><path fill="#33c481" d="M15.574,22.874l2.661-0.591l-2.07,2.955v9.162L9.07,28.49V18.441l3.252,1.182L15.574,22.874z"/><path fill="#33c481" d="M17.052,25.83l2.365-3.547l1.478,0.887h5.913l1.478-0.887l2.365,3.547v13.3l-1.774,2.66l-2.07,2.069	h-5.913l-2.07-2.069l-1.774-2.66V25.83z"/><path fill="#33c481" d="M31.539,40.016l3.843-3.842v-3.842l-3.843,3.251V40.016z"/><path fill="#33c481" d="M16.165,40.016l-3.843-3.842v-3.842l3.843,3.251V40.016z"/><path fill="#35495e" d="M24.443,19.143l4.529-10.969l1.088,2.583l-3.548,11.231h-2.07V19.143z M18.841,7.914l4.42,11.419	v2.655h-1.774l-3.843-11.231L18.841,7.914z"/><path fill="#33c481" d="M8.774,17.259l12.713,4.729h0.296l-3.843-11.231L7,9.87L8.774,17.259z M39.226,17.259l-12.713,4.729	h-0.296l3.548-11.231L41,9.87L39.226,17.259z"/><polygon fill="#35495e" points="36.863,9.279 30.652,9.869 29.424,7.078 30.23,5.142 32.726,5.142"/><polygon fill="#35495e" points="18.408,6.783 17.052,9.869 10.842,9.279 14.979,5.142 17.77,5.142"/><path fill="#35495e" d="M11.619,10.251l6.387,0.491l3.832,11.251h-0.393l-4.127-1.523L11.619,10.251z"/><path fill="#35495e" d="M36.283,10.251l-6.584,0.491l-3.636,11.251l0.491-0.01l3.832-1.415L36.283,10.251z"/><path fill="#35495e" d="M18.89,23.026l0.491-0.786l1.671,0.786h5.896l1.277-0.786l0.59,0.786l-4.962,8.451L18.89,23.026z"/><path fill="#33c481" d="M18.821,5.142l5.003,12.926l5.337-12.926H18.821z"/></svg>